<svg width="861" height="546" viewBox="0 0 861 546" fill="none" xmlns="http://www.w3.org/2000/svg">
<g clip-path="url(#clip0_65_139)">
<path opacity="0.1" d="M861 349.619C861.018 364.328 859.289 378.987 855.849 393.293C853.06 404.877 849.086 416.148 843.991 426.929C843.141 428.73 842.269 430.502 841.359 432.251C841.401 453.587 835.317 474.492 823.823 492.511C804.076 523.426 769.584 543.914 730.339 543.914H164.056C137.964 543.94 112.388 536.689 90.2358 522.985C72.2018 511.846 56.8938 496.849 45.4262 479.087C30.5147 456.013 22.607 429.157 22.6492 401.732C20.2429 397.397 18.0171 392.912 15.9718 388.277C9.39757 373.369 4.90922 357.636 2.63191 341.516C1.37397 332.684 0.745765 323.774 0.751999 314.854C0.751999 264.819 20.3031 220.218 50.8705 191.253C73.6174 169.682 102.463 156.788 133.835 156.788C136.437 156.788 139.016 156.885 141.58 157.057C142.994 154.242 144.46 151.451 145.979 148.685C187.863 72.4441 270.053 16.8103 367.974 3.67736C382.777 1.69028 397.696 0.691421 412.633 0.6875C422.003 0.6875 431.262 1.06871 440.411 1.83112C501.967 6.89893 558.056 28.68 602.88 62.002C604.227 62.9961 605.565 64.0127 606.888 65.0292C626.018 52.3896 648.043 45.1766 671.49 45.1766C675.491 45.1771 679.49 45.3892 683.469 45.8119C740.986 51.9037 787.992 101.468 800.986 166.654C803.384 178.717 804.585 190.984 804.573 203.28C804.573 208.856 804.322 214.365 803.821 219.807C808.111 223.354 812.181 227.155 816.01 231.19C843.622 260.147 861 302.469 861 349.619Z" fill="#D7336E"/>
<path opacity="0.1" d="M89.4838 522.305C92.7474 524.323 96.1011 526.207 99.5451 527.956L439.148 325.677L443.659 333.9L245.893 543.19H295.898L460.932 360.061L466.948 365.293L426.785 543.19H483.183L522.616 389.959H536.903L592.827 543.19H646.968L606.806 365.293L612.821 360.061L770.734 535.274C782.24 530.643 792.881 524.121 802.211 515.982L630.147 333.9L634.659 325.677L839.456 447.664C840.221 442.323 840.605 436.935 840.607 431.541C841.517 429.792 842.389 428.02 843.239 426.219C848.334 415.438 852.308 404.167 855.097 392.583C855.729 389.982 856.285 387.351 856.804 384.682L634.659 301.011V280.83L853.638 299.576C846.186 272.608 832.801 248.831 815.288 230.443L815.002 230.152L634.659 265.88V246.446L799.339 161.796C792.105 129.468 776.457 101.214 755.356 80.5393L606.167 223.5L593.135 215L649.029 46.5969C633.707 49.6579 619.142 55.6903 606.167 64.3492C604.843 63.3326 603.505 62.3161 602.159 61.322C599.196 59.1194 582.553 48.6948 579.5 46.5969L556 208.849H496.5L470.196 5.07528C460.195 3.3013 450.018 1.98078 439.666 1.11373C431.295 0.426058 397.5 0 379 2.99973L466.97 233.463L460.955 238.695L273.287 30.4367C232.974 49.3849 198.188 76.346 171.598 108.92L439.148 246.454V265.888L51.6224 189.108C51.1186 189.572 50.6148 190.035 50.1185 190.506C19.5737 219.47 0 264.072 0 314.107C0 315.549 -2.30968e-07 316.992 0.0526373 318.42L439.148 280.83V301.011L32.1465 454.241C43.4591 482.434 63.5515 506.288 89.4838 522.313V522.305Z" fill="#D7336E"/>
<path opacity="0.1" d="M622.988 543.959H556.063L536.745 362.43L536.46 359.807V359.799L534.82 344.372L601.768 343.901L603.821 343.886L603.964 345.366L622.988 543.959Z" fill="#D7336E"/>
<path opacity="0.1" d="M537.798 361.362L536.745 362.43L356.898 543.96H265.256L493.064 309.136L536.46 359.799L537.798 361.362Z" fill="#D7336E"/>
<path d="M811.468 511.056C801.168 521.968 788.727 530.665 774.912 536.61C761.098 542.554 746.204 545.621 731.151 545.619H164.868C128.48 545.634 93.5148 531.57 67.376 506.407L68.1881 506.272C150.822 493.154 280.528 484.7 426.364 484.7C587.819 484.7 729.496 495.06 809.43 510.652C810.115 510.779 810.791 510.914 811.468 511.056Z" fill="#E8EAF2"/>
<path opacity="0.3" d="M811.468 511.437C801.168 522.349 788.727 531.046 774.912 536.991C761.098 542.936 746.204 546.002 731.151 546H164.868C128.479 546.013 93.5136 531.947 67.376 506.781L68.1881 506.646C150.822 493.498 280.528 485.074 426.364 485.074C587.819 485.074 729.496 495.434 809.43 511.026C810.115 511.153 810.791 511.288 811.468 511.437Z" fill="#D7336E"/>
<path d="M528.631 418.229C594.664 418.229 648.194 365.019 648.194 299.382C648.194 233.745 594.664 180.535 528.631 180.535C462.599 180.535 409.069 233.745 409.069 299.382C409.069 365.019 462.599 418.229 528.631 418.229Z" fill="#F86D70"/>
<path d="M644.058 507.132L637.945 529.503C636.797 533.703 634.292 537.411 630.814 540.055C627.336 542.698 623.08 544.131 618.702 544.131H239.712C235.334 544.131 231.077 542.698 227.6 540.055C224.122 537.411 221.616 533.703 220.469 529.503L214.355 507.132C209.031 487.638 222.958 467.733 243.261 466.829C243.757 466.829 244.253 466.791 244.765 466.791H613.686C614.19 466.791 614.686 466.791 615.19 466.829C635.471 467.733 649.397 487.638 644.058 507.132Z" fill="#3F3D56"/>
<path opacity="0.1" d="M607.347 476.972C607.347 501.137 524.841 520.728 423.07 520.728C321.3 520.728 238.794 501.137 238.794 476.972C238.794 473.459 240.531 470.05 243.81 466.791H602.331C605.603 470.05 607.347 473.459 607.347 476.972Z" fill="black"/>
<path d="M657.511 377.357C657.511 359.508 641.005 345.037 620.664 345.037C600.324 345.037 583.818 359.508 583.818 377.357C563.47 377.357 546.972 391.836 546.972 409.685C546.972 427.535 563.477 442.013 583.818 442.013C590.22 442.036 596.536 440.55 602.249 437.678C607.967 440.527 614.275 442.011 620.672 442.011C627.068 442.011 633.377 440.527 639.095 437.678C644.808 440.55 651.124 442.036 657.526 442.013C677.881 442.013 694.372 427.535 694.372 409.685C694.372 391.836 677.896 377.357 657.511 377.357Z" fill="#D7336E"/>
<path opacity="0.1" d="M657.511 377.357C657.511 359.508 641.005 345.037 620.664 345.037C600.324 345.037 583.818 359.508 583.818 377.357C563.47 377.357 546.972 391.836 546.972 409.685C546.972 427.535 563.477 442.013 583.818 442.013C590.22 442.036 596.536 440.55 602.249 437.678C607.967 440.527 614.275 442.011 620.672 442.011C627.068 442.011 633.377 440.527 639.095 437.678C644.808 440.55 651.124 442.036 657.526 442.013C677.881 442.013 694.372 427.535 694.372 409.685C694.372 391.836 677.896 377.357 657.511 377.357Z" fill="black"/>
<path d="M570.418 213.76C570.422 209.275 569.597 204.829 567.982 200.642C576.191 197.75 583.107 192.068 587.51 184.599C591.913 177.13 593.518 168.354 592.043 159.822C590.567 151.291 586.106 143.552 579.447 137.973C572.787 132.394 564.358 129.334 555.649 129.334C555.646 120.344 552.325 111.669 546.316 104.951C540.306 98.234 532.025 93.9423 523.044 92.8898C514.063 91.8373 505.005 94.0973 497.589 99.2412C490.172 104.385 484.912 112.055 482.807 120.798C482.468 120.798 482.13 120.798 481.791 120.798C481.8 111.652 478.372 102.833 472.181 96.0686C465.99 89.3036 457.481 85.0801 448.321 84.2252C439.161 83.3704 430.01 85.9458 422.66 91.447C415.311 96.9482 410.292 104.979 408.588 113.966C403.14 109.71 396.599 107.064 389.71 106.33C382.822 105.595 375.864 106.802 369.633 109.813C363.402 112.823 358.149 117.515 354.474 123.353C350.799 129.191 348.851 135.939 348.851 142.825C340.909 142.836 333.181 145.393 326.817 150.116C320.452 154.839 315.789 161.476 313.52 169.043C311.251 176.609 311.498 184.701 314.223 192.117C316.947 199.533 322.006 205.877 328.646 210.209C328.171 212.584 327.931 215 327.932 217.422C322.266 217.42 316.675 218.713 311.593 221.202C306.511 223.691 302.072 227.309 298.622 231.777C295.172 236.244 292.802 241.44 291.696 246.964C290.59 252.488 290.777 258.19 292.243 263.63C293.71 269.07 296.416 274.102 300.152 278.336C303.888 282.57 308.554 285.893 313.789 288.047C319.024 290.201 324.688 291.129 330.341 290.759C335.995 290.389 341.487 288.73 346.393 285.912C352.006 289.134 358.375 290.83 364.857 290.83C371.339 290.83 377.708 289.134 383.322 285.912C390.164 289.84 398.093 291.482 405.944 290.597C413.795 289.712 421.152 286.346 426.936 280.994C427.575 280.994 428.214 281.046 428.861 281.046C435.346 281.052 441.717 279.352 447.329 276.121C455.576 280.873 465.358 282.253 474.61 279.97C480.396 284.215 487.303 286.688 494.483 287.087C501.662 287.485 508.803 285.791 515.028 282.212C520.642 285.434 527.01 287.13 533.493 287.13C539.975 287.13 546.343 285.434 551.957 282.212C556.863 285.03 562.355 286.689 568.008 287.059C573.662 287.429 579.326 286.501 584.561 284.347C589.796 282.193 594.462 278.87 598.198 274.636C601.934 270.402 604.64 265.37 606.106 259.93C607.573 254.49 607.76 248.788 606.654 243.264C605.548 237.74 603.178 232.544 599.728 228.077C596.277 223.609 591.839 219.991 586.757 217.502C581.674 215.013 576.084 213.72 570.418 213.722V213.76ZM401.782 217.43C401.78 215.85 401.674 214.272 401.466 212.706C402.414 212.265 403.346 211.801 404.249 211.278C405.723 212.136 407.259 212.885 408.843 213.52C407.022 214.695 405.306 216.023 403.715 217.489C403.076 217.445 402.429 217.43 401.782 217.43Z" fill="#D7336E"/>
<path d="M553.596 314.907C553.465 306.222 549.902 297.937 543.677 291.841C537.452 285.745 529.064 282.329 520.326 282.329C511.587 282.329 503.2 285.745 496.975 291.841C490.75 297.937 487.186 306.222 487.055 314.907C481.95 314.904 476.912 316.069 472.332 318.311C467.752 320.554 463.753 323.814 460.644 327.839C457.535 331.865 455.399 336.547 454.402 341.524C453.405 346.501 453.574 351.64 454.895 356.542C456.217 361.444 458.655 365.978 462.022 369.793C465.388 373.608 469.593 376.602 474.31 378.543C479.028 380.484 484.131 381.319 489.225 380.986C494.32 380.652 499.268 379.157 503.689 376.617C508.745 379.525 514.484 381.057 520.326 381.057C526.168 381.057 531.906 379.525 536.963 376.617C541.382 379.152 546.329 380.642 551.42 380.972C556.511 381.302 561.61 380.465 566.323 378.523C571.036 376.581 575.237 373.588 578.601 369.775C581.964 365.962 584.4 361.431 585.721 356.532C587.041 351.634 587.21 346.499 586.215 341.525C585.22 336.551 583.088 331.871 579.982 327.847C576.877 323.824 572.882 320.564 568.307 318.32C563.732 316.076 558.698 314.908 553.596 314.907Z" fill="#D7336E"/>
<path opacity="0.1" d="M553.596 314.907C553.465 306.222 549.902 297.937 543.677 291.841C537.452 285.745 529.064 282.329 520.326 282.329C511.587 282.329 503.2 285.745 496.975 291.841C490.75 297.937 487.186 306.222 487.055 314.907C481.95 314.904 476.912 316.069 472.332 318.311C467.752 320.554 463.753 323.814 460.644 327.839C457.535 331.865 455.399 336.547 454.402 341.524C453.405 346.501 453.574 351.64 454.895 356.542C456.217 361.444 458.655 365.978 462.022 369.793C465.388 373.608 469.593 376.602 474.31 378.543C479.028 380.484 484.131 381.319 489.225 380.986C494.32 380.652 499.268 379.157 503.689 376.617C508.745 379.525 514.484 381.057 520.326 381.057C526.168 381.057 531.906 379.525 536.963 376.617C541.382 379.152 546.329 380.642 551.42 380.972C556.511 381.302 561.61 380.465 566.323 378.523C571.036 376.581 575.237 373.588 578.601 369.775C581.964 365.962 584.4 361.431 585.721 356.532C587.041 351.634 587.21 346.499 586.215 341.525C585.22 336.551 583.088 331.871 579.982 327.847C576.877 323.824 572.882 320.564 568.307 318.32C563.732 316.076 558.698 314.908 553.596 314.907Z" fill="black"/>
<path opacity="0.1" d="M570.418 213.76C570.422 209.275 569.597 204.829 567.982 200.642C576.191 197.75 583.107 192.068 587.51 184.599C591.913 177.13 593.518 168.354 592.043 159.822C590.567 151.291 586.106 143.552 579.447 137.973C572.787 132.394 564.358 129.334 555.649 129.334C555.646 120.344 552.325 111.669 546.316 104.951C540.306 98.234 532.025 93.9423 523.044 92.8898C514.063 91.8373 505.005 94.0973 497.589 99.2412C490.172 104.385 484.912 112.055 482.807 120.798C482.468 120.798 482.13 120.798 481.791 120.798C481.8 111.652 478.372 102.833 472.181 96.0686C465.99 89.3036 457.481 85.0801 448.321 84.2252C439.161 83.3704 430.01 85.9458 422.66 91.447C415.311 96.9482 410.292 104.979 408.588 113.966C403.14 109.71 396.599 107.064 389.71 106.33C382.822 105.595 375.864 106.802 369.633 109.813C363.402 112.823 358.149 117.515 354.474 123.353C350.799 129.191 348.851 135.939 348.851 142.825C340.909 142.836 333.181 145.393 326.817 150.116C320.452 154.839 315.789 161.476 313.52 169.043C311.251 176.609 311.498 184.701 314.223 192.117C316.947 199.533 322.006 205.877 328.646 210.209C328.171 212.584 327.931 215 327.932 217.422C322.266 217.42 316.675 218.713 311.593 221.202C306.511 223.691 302.072 227.309 298.622 231.777C295.172 236.244 292.802 241.44 291.696 246.964C290.59 252.488 290.777 258.19 292.243 263.63C293.71 269.07 296.416 274.102 300.152 278.336C303.888 282.57 308.554 285.893 313.789 288.047C319.024 290.201 324.688 291.129 330.341 290.759C335.995 290.389 341.487 288.73 346.393 285.912C352.006 289.134 358.375 290.83 364.857 290.83C371.339 290.83 377.708 289.134 383.322 285.912C390.164 289.84 398.093 291.482 405.944 290.597C413.795 289.712 421.152 286.346 426.936 280.994C427.575 280.994 428.214 281.046 428.861 281.046C435.346 281.052 441.717 279.352 447.329 276.121C455.576 280.873 465.358 282.253 474.61 279.97C480.396 284.215 487.303 286.688 494.483 287.087C501.662 287.485 508.803 285.791 515.028 282.212C520.642 285.434 527.01 287.13 533.493 287.13C539.975 287.13 546.343 285.434 551.957 282.212C556.863 285.03 562.355 286.689 568.008 287.059C573.662 287.429 579.326 286.501 584.561 284.347C589.796 282.193 594.462 278.87 598.198 274.636C601.934 270.402 604.64 265.37 606.106 259.93C607.573 254.49 607.76 248.788 606.654 243.264C605.548 237.74 603.178 232.544 599.728 228.077C596.277 223.609 591.839 219.991 586.757 217.502C581.674 215.013 576.084 213.72 570.418 213.722V213.76ZM401.782 217.43C401.78 215.85 401.674 214.272 401.466 212.706C402.414 212.265 403.346 211.801 404.249 211.278C405.723 212.136 407.259 212.885 408.843 213.52C407.022 214.695 405.306 216.023 403.715 217.489C403.076 217.445 402.429 217.43 401.782 217.43Z" fill="black"/>
<path d="M542.385 394.235C539.512 393.099 536.602 391.948 533.534 391.559C533.226 391.559 532.918 391.499 532.602 391.477C532.602 391.163 532.602 390.856 532.639 390.55C532.805 386.813 533.97 382.956 536.602 380.257C539.234 377.559 542.896 376.229 544.611 373.044C538.343 371.219 531.854 370.251 525.323 370.167C523.661 370.167 521.894 370.167 520.503 371.108C518.796 372.207 518.059 374.285 517.495 376.243C515.765 382.731 514.6 389.085 512.622 395.416L512.103 395.536C505.11 397.03 496.312 395.872 493.101 389.616C493.903 386.46 494.908 383.359 496.109 380.332C499.869 371.026 505.629 362.662 511.321 354.373C515.006 348.996 518.696 343.624 522.39 338.257C516.859 336.6 511.241 335.245 505.561 334.199C504.358 333.974 502.997 333.795 501.997 334.498C501.318 335.074 500.819 335.831 500.561 336.68C495.131 349.925 488.477 364.419 486.589 378.979C485.532 378.409 484.445 377.895 483.333 377.439L465.842 370.025C464.917 369.716 464.08 369.187 463.406 368.485C461.812 366.519 463.406 363.395 465.737 362.348C468.068 361.302 470.708 361.601 473.257 361.376C475.806 361.152 478.618 360.233 479.566 357.886C480.664 355.187 478.566 352.138 476.001 350.725C473.437 349.312 470.422 348.916 467.73 347.735C465.66 346.773 463.844 345.345 462.426 343.563C461.009 341.782 460.029 339.696 459.564 337.473L455.39 337.278C460.894 332.046 466.602 327.03 473.159 323.181C476.325 321.32 479.679 319.743 482.626 317.553C486.508 314.594 489.548 310.682 491.447 306.201C493.345 301.72 494.037 296.824 493.455 291.997C493.079 289.186 492.274 286.279 493.169 283.588C493.921 281.398 495.62 279.716 497.297 278.124L512.404 263.758C502.789 261.581 492.935 260.616 483.077 260.887C480.581 260.962 478.002 261.127 475.768 262.248C471.693 264.296 469.753 268.93 468.158 273.183C466.944 276.179 465.961 279.262 465.218 282.407C464.105 287.714 464.271 293.529 461.255 298.036C458.864 301.609 454.886 303.717 451.314 306.124C441.135 313.016 433.539 323.064 429.71 334.699C429.47 335.447 429.064 336.404 428.598 337.473C419.747 338.22 411.077 339.894 402.888 343.318C392.594 347.623 383.607 354.462 374.787 361.257C365.072 368.731 354.852 377.096 351.438 388.846C347.641 401.889 353.499 416.195 362.876 426.069C370.546 434.135 380.276 439.815 390.089 444.92C396.504 448.254 397.572 447.574 403.204 443.089L418.348 431.025C422.672 427.587 427.071 424.059 430.011 419.395C434.064 412.974 435.064 404.819 439.975 399.011C446.697 391.051 460.406 390.385 467.888 397.643C470.038 399.736 471.911 402.472 474.843 403.167C476.272 403.511 477.851 403.317 479.16 403.915C481.656 405.096 482.032 408.399 482.92 410.971C485.363 417.9 493.665 421.525 500.967 420.486C508.268 419.447 514.562 414.73 519.503 409.274C520.849 407.779 522.18 406.194 524.014 405.305C525.482 404.656 527.07 404.32 528.677 404.318C534.009 404.101 539.306 405.268 544.047 407.704C548.461 409.947 552.318 413.273 556.958 415.022C566.139 418.475 576.404 415.194 585.397 411.285L542.385 394.235Z" fill="#3F3D56"/>
<path opacity="0.1" d="M542.385 394.235C539.512 393.099 536.602 391.948 533.534 391.559C533.226 391.559 532.918 391.499 532.602 391.477C532.602 391.163 532.602 390.856 532.639 390.55C532.805 386.813 533.97 382.956 536.602 380.257C539.234 377.559 542.896 376.229 544.611 373.044C538.343 371.219 531.854 370.251 525.323 370.167C523.661 370.167 521.894 370.167 520.503 371.108C518.796 372.207 518.059 374.285 517.495 376.243C515.765 382.731 514.6 389.085 512.622 395.416L512.103 395.536C505.11 397.03 496.312 395.872 493.101 389.616C493.903 386.46 494.908 383.359 496.109 380.332C499.869 371.026 505.629 362.662 511.321 354.373C515.006 348.996 518.696 343.624 522.39 338.257C516.859 336.6 511.241 335.245 505.561 334.199C504.358 333.974 502.997 333.795 501.997 334.498C501.318 335.074 500.819 335.831 500.561 336.68C495.131 349.925 488.477 364.419 486.589 378.979C485.532 378.409 484.445 377.895 483.333 377.439L465.842 370.025C464.917 369.716 464.08 369.187 463.406 368.485C461.812 366.519 463.406 363.395 465.737 362.348C468.068 361.302 470.708 361.601 473.257 361.376C475.806 361.152 478.618 360.233 479.566 357.886C480.664 355.187 478.566 352.138 476.001 350.725C473.437 349.312 470.422 348.916 467.73 347.735C465.66 346.773 463.844 345.345 462.426 343.563C461.009 341.782 460.029 339.696 459.564 337.473L455.39 337.278C460.894 332.046 466.602 327.03 473.159 323.181C476.325 321.32 479.679 319.743 482.626 317.553C486.508 314.594 489.548 310.682 491.447 306.201C493.345 301.72 494.037 296.824 493.455 291.997C493.079 289.186 492.274 286.279 493.169 283.588C493.921 281.398 495.62 279.716 497.297 278.124L512.404 263.758C502.789 261.581 492.935 260.616 483.077 260.887C480.581 260.962 478.002 261.127 475.768 262.248C471.693 264.296 469.753 268.93 468.158 273.183C466.944 276.179 465.961 279.262 465.218 282.407C464.105 287.714 464.271 293.529 461.255 298.036C458.864 301.609 454.886 303.717 451.314 306.124C441.135 313.016 433.539 323.064 429.71 334.699C429.47 335.447 429.064 336.404 428.598 337.473C419.747 338.22 411.077 339.894 402.888 343.318C392.594 347.623 383.607 354.462 374.787 361.257C365.072 368.731 354.852 377.096 351.438 388.846C347.641 401.889 353.499 416.195 362.876 426.069C370.546 434.135 380.276 439.815 390.089 444.92C396.504 448.254 397.572 447.574 403.204 443.089L418.348 431.025C422.672 427.587 427.071 424.059 430.011 419.395C434.064 412.974 435.064 404.819 439.975 399.011C446.697 391.051 460.406 390.385 467.888 397.643C470.038 399.736 471.911 402.472 474.843 403.167C476.272 403.511 477.851 403.317 479.16 403.915C481.656 405.096 482.032 408.399 482.92 410.971C485.363 417.9 493.665 421.525 500.967 420.486C508.268 419.447 514.562 414.73 519.503 409.274C520.849 407.779 522.18 406.194 524.014 405.305C525.482 404.656 527.07 404.32 528.677 404.318C534.009 404.101 539.306 405.268 544.047 407.704C548.461 409.947 552.318 413.273 556.958 415.022C566.139 418.475 576.404 415.194 585.397 411.285L542.385 394.235Z" fill="black"/>
<path d="M419.484 302.603C419.484 284.223 400.008 269.333 375.975 269.333C351.942 269.333 332.466 284.208 332.466 302.603C308.403 302.603 288.958 317.493 288.958 335.873C288.958 354.253 308.433 369.135 332.466 369.135C339.953 369.167 347.364 367.639 354.221 364.65C361.091 367.594 368.493 369.113 375.975 369.113C383.456 369.113 390.859 367.594 397.729 364.65C404.586 367.639 411.997 369.167 419.484 369.135C443.546 369.135 462.992 354.245 462.992 335.873C462.992 317.5 443.516 302.603 419.484 302.603Z" fill="#D7336E"/>
<path opacity="0.1" d="M419.484 302.603C419.484 284.223 400.008 269.333 375.975 269.333C351.942 269.333 332.466 284.208 332.466 302.603C308.403 302.603 288.958 317.493 288.958 335.873C288.958 354.253 308.433 369.135 332.466 369.135C339.953 369.167 347.364 367.639 354.221 364.65C361.091 367.594 368.493 369.113 375.975 369.113C383.456 369.113 390.859 367.594 397.729 364.65C404.586 367.639 411.997 369.167 419.484 369.135C443.546 369.135 462.992 354.245 462.992 335.873C462.992 317.5 443.516 302.603 419.484 302.603Z" fill="black"/>
<path d="M512.795 490.509L487.853 479.095C485.852 478.175 483.634 477.032 483.01 474.924C482.788 473.783 482.788 472.611 483.01 471.471C483.61 465.539 482.313 459.57 479.303 454.414C477.43 451.222 474.896 448.352 473.776 444.824C471.385 437.349 476.032 429.433 476.257 421.555C476.505 413.886 472.498 406.509 466.79 401.314C465.098 399.766 463.241 398.324 461.91 396.493C458.045 391.096 459.654 383.786 461.489 377.335L461.962 376.902C462.316 376.558 462.053 375.085 461.406 372.903C468.616 370.992 475.413 367.784 481.461 363.44C483.378 362.057 485.221 360.54 487.477 359.658C490.575 358.424 494.086 358.566 497.215 357.415C503.05 355.255 506.291 349.193 509.005 343.632C515.435 330.484 521.977 316.895 522.789 302.297C517.51 298.238 511.094 295.908 504.426 295.63C503.313 295.585 502.05 295.63 501.32 296.497C500.911 297.047 500.651 297.693 500.568 298.373C498.29 308.791 494.358 318.783 488.92 327.972C486.747 331.833 484.08 335.398 480.987 338.579C477.227 342.316 472.61 345.104 468.068 347.877C464.248 350.202 459.135 352.467 454.796 355.135C451.788 347.451 449.044 340.44 449.397 339.364C453.174 327.641 453.32 315.061 449.818 303.254C448.946 300.324 447.833 297.431 447.562 294.381C447.292 291.332 447.901 288.327 448.141 285.292C448.615 279.275 447.69 273.243 447.728 267.204C447.773 259.026 449.578 250.969 451.375 242.986C446.377 242.098 441.288 241.827 436.223 242.179C435.224 242.182 434.243 242.44 433.373 242.926C432.109 243.741 431.636 245.31 431.207 246.746C427.861 257.89 421.792 268.063 418.191 279.133C414.589 290.203 413.814 303.172 420.514 312.709C422.898 316.095 426.229 319.16 426.755 323.256C427.034 325.424 426.462 327.599 425.891 329.714C424.876 333.504 441.208 374.226 442.118 377.985C442.118 378.09 442.178 378.18 442.201 378.277C441.689 378.389 441.171 378.486 440.652 378.606C439.962 389.195 435.841 399.278 428.906 407.346C427.985 404.742 427.332 402.053 426.958 399.318C426.395 395.207 426.447 390.969 425.161 387.022C423.236 381.132 418.589 376.617 414.529 371.931C407.217 363.472 401.444 353.813 397.466 343.385C394.401 344.516 391.261 345.433 388.067 346.128C386.375 346.502 380.547 346.51 379.63 348.012C378.216 350.254 384.533 360.682 385.781 363.081C390.18 371.52 397.594 378.112 401.948 386.574C403.764 390.329 405.265 394.226 406.437 398.227C408.814 405.701 411.19 413.176 413.01 420.77C410.829 423.013 409.107 425.748 407.234 428.297C400.594 437.277 391.807 444.47 381.668 449.226C380.457 449.794 379.118 450.43 378.6 451.655C378.512 451.865 378.446 452.083 378.404 452.306C374.268 449.406 370.403 446.169 367.711 441.953C366.523 440.085 365.583 438.059 364.29 436.265C359.936 430.233 352.318 427.684 346.085 423.558C343.453 421.824 341.001 419.769 338.091 418.55C334.895 417.205 331.361 416.951 327.902 416.719C325.067 416.525 314.194 414.275 312.795 416.794C310.81 420.359 317.104 425.569 319.623 426.825C323.811 428.91 328.601 429.441 332.978 431.093C336.934 432.709 340.607 434.939 343.859 437.7C345.28 438.742 346.524 440.004 347.543 441.438C348.626 443.119 349.13 445.1 350.04 446.879C352.958 452.582 359.267 455.191 364.914 458.547C363.415 458.612 361.941 458.943 360.56 459.526C356.356 461.425 354.401 466.126 351.664 469.826C349.22 473.108 346.002 475.731 343.31 478.796C340.618 481.86 338.377 485.695 338.58 489.769C338.708 492.347 339.753 495.165 338.377 497.355C341.543 498.716 345.438 500.345 348.867 500.756C352.296 501.167 356.011 500.517 358.575 498.222C359.369 497.38 360.221 496.593 361.124 495.868C363.297 494.425 366.275 494.829 368.598 496.01C370.922 497.191 372.84 499.037 374.968 500.554C378.006 502.693 381.469 504.162 385.124 504.865C388.78 505.567 392.544 505.487 396.166 504.628C397.669 504.269 399.828 503.963 399.361 502.528C396.179 501.051 393.469 498.728 391.533 495.815C389.596 492.902 388.509 489.513 388.39 486.024C390.758 485.575 393.204 485.774 395.467 486.601C397.729 487.428 399.723 488.851 401.234 490.718C399.143 490.808 397.76 493.603 398.978 495.307C402.96 495.229 406.866 494.202 410.367 492.314C413.868 490.425 416.863 487.73 419.1 484.454C420.742 483.785 422.527 483.54 424.29 483.74C426.052 483.941 427.735 484.581 429.182 485.601C430.63 486.621 431.794 487.988 432.567 489.575C433.341 491.163 433.698 492.918 433.606 494.679L444.479 500.016C446.186 500.853 447.998 501.713 449.901 501.586C451.803 501.459 453.743 499.934 453.601 498.05C453.435 495.89 450.826 493.685 452.255 492.071C454.811 493.207 456.766 495.449 459.391 496.428C462.015 497.408 465.88 496.1 465.737 493.319C465.621 492.393 465.261 491.513 464.692 490.77C461.752 486.317 457.843 482.578 453.255 479.827C452.916 477.383 458.518 474.7 460.218 476.523L473.994 491.615C475.066 492.913 476.334 494.038 477.754 494.948C482.679 497.781 488.83 494.948 494.515 494.948C500.666 494.948 506.96 498.432 512.682 496.212C514.186 495.636 515.69 494.223 515.262 492.684C514.923 491.577 513.803 491.002 512.795 490.509Z" fill="#3F3D56"/>
<path d="M550.017 209.327C550.02 205.599 549.332 201.902 547.987 198.422C554.813 196.015 560.564 191.289 564.224 185.077C567.885 178.865 569.219 171.567 567.992 164.472C566.765 157.376 563.056 150.941 557.519 146.3C551.981 141.66 544.973 139.113 537.73 139.111C537.723 131.637 534.958 124.426 529.959 118.843C524.961 113.26 518.076 109.693 510.609 108.818C503.143 107.943 495.612 109.82 489.445 114.094C483.277 118.368 478.901 124.743 477.144 132.01C476.866 132.01 476.588 132.01 476.302 132.01C476.336 124.384 473.498 117.022 468.345 111.372C463.192 105.722 456.099 102.194 448.461 101.482C440.823 100.769 433.193 102.924 427.073 107.523C420.954 112.121 416.787 118.83 415.393 126.329C410.863 122.79 405.423 120.59 399.695 119.979C393.966 119.368 388.18 120.372 382.999 122.876C377.817 125.379 373.449 129.282 370.393 134.137C367.337 138.991 365.717 144.603 365.718 150.33C359.108 150.334 352.675 152.458 347.376 156.386C342.076 160.314 338.194 165.838 336.305 172.135C334.417 178.432 334.623 185.167 336.892 191.338C339.162 197.51 343.375 202.788 348.904 206.39C348.513 208.359 348.314 210.362 348.31 212.369C343.596 212.366 338.945 213.44 334.716 215.51C330.486 217.579 326.793 220.589 323.922 224.305C321.051 228.021 319.079 232.345 318.158 236.94C317.237 241.535 317.393 246.28 318.613 250.806C319.833 255.332 322.085 259.518 325.193 263.04C328.302 266.563 332.185 269.327 336.541 271.118C340.897 272.909 345.609 273.68 350.312 273.371C355.016 273.061 359.585 271.68 363.665 269.334C368.334 272.017 373.631 273.43 379.024 273.43C384.417 273.43 389.715 272.017 394.383 269.334C400.071 272.604 406.666 273.971 413.195 273.235C419.724 272.499 425.843 269.698 430.65 265.245C431.184 265.245 431.718 265.282 432.26 265.282C437.651 265.287 442.948 263.877 447.615 261.194C454.489 265.153 462.642 266.305 470.354 264.408C475.163 267.943 480.906 270.004 486.878 270.339C492.849 270.674 498.789 269.267 503.967 266.292C508.634 268.974 513.931 270.387 519.322 270.387C524.714 270.387 530.01 268.974 534.677 266.292C538.756 268.632 543.323 270.009 548.023 270.315C552.723 270.621 557.43 269.848 561.782 268.057C566.134 266.265 570.012 263.503 573.118 259.983C576.224 256.463 578.474 252.28 579.693 247.758C580.913 243.236 581.07 238.495 580.152 233.903C579.233 229.311 577.265 224.991 574.398 221.276C571.532 217.561 567.844 214.551 563.62 212.479C559.397 210.407 554.75 209.329 550.04 209.327H550.017ZM409.761 212.384C409.757 211.072 409.669 209.761 409.498 208.46C410.25 208.086 411.062 207.713 411.806 207.272C413.039 207.975 414.317 208.594 415.634 209.125C414.116 210.098 412.687 211.201 411.362 212.422C410.836 212.399 410.295 212.384 409.761 212.384Z" fill="#D7336E"/>
<path d="M654.435 378.254C654.435 361.399 638.855 347.728 619.627 347.728C600.399 347.728 584.826 361.399 584.826 378.254C565.598 378.254 550.018 391.925 550.018 408.788C550.018 425.651 565.598 439.314 584.826 439.314C590.872 439.329 596.836 437.918 602.227 435.196C607.628 437.889 613.588 439.292 619.631 439.292C625.674 439.292 631.633 437.889 637.035 435.196C642.427 437.91 648.391 439.314 654.435 439.292C673.663 439.292 689.244 425.628 689.244 408.765C689.244 391.903 673.663 378.254 654.435 378.254Z" fill="#D7336E"/>
<path d="M550.017 316.185C550.081 312.135 549.334 308.114 547.819 304.354C546.304 300.595 544.052 297.172 541.193 294.286C538.335 291.4 534.927 289.108 531.169 287.543C527.411 285.979 523.378 285.173 519.303 285.173C515.229 285.173 511.195 285.979 507.437 287.543C503.679 289.108 500.272 291.4 497.413 294.286C494.555 297.172 492.303 300.595 490.788 304.354C489.273 308.114 488.526 312.135 488.589 316.185C483.88 316.187 479.234 317.266 475.012 319.338C470.789 321.41 467.102 324.419 464.236 328.134C461.37 331.848 459.402 336.168 458.484 340.759C457.565 345.35 457.721 350.09 458.94 354.611C460.159 359.133 462.407 363.315 465.512 366.835C468.616 370.355 472.493 373.118 476.843 374.911C481.194 376.703 485.9 377.477 490.6 377.173C495.299 376.869 499.865 375.495 503.944 373.157C508.613 375.835 513.909 377.245 519.3 377.245C524.69 377.245 529.986 375.835 534.655 373.157C538.734 375.497 543.3 376.874 548 377.18C552.7 377.486 557.408 376.713 561.759 374.922C566.111 373.13 569.99 370.368 573.096 366.848C576.201 363.328 578.451 359.145 579.671 354.623C580.89 350.101 581.047 345.36 580.129 340.768C579.211 336.176 577.242 331.856 574.376 328.141C571.509 324.426 567.822 321.416 563.598 319.344C559.374 317.272 554.727 316.194 550.017 316.192V316.185Z" fill="#D7336E"/>
<path d="M415.905 303.971C415.905 287.108 398.023 273.445 375.975 273.445C353.928 273.445 336.046 287.108 336.046 303.971C313.998 303.971 296.124 317.642 296.124 334.498C296.124 351.353 313.998 365.032 336.046 365.032C342.916 365.068 349.717 363.673 356.011 360.936C362.316 363.638 369.109 365.031 375.975 365.031C382.841 365.031 389.635 363.638 395.94 360.936C402.234 363.673 409.035 365.068 415.905 365.032C437.952 365.032 455.826 351.36 455.826 334.498C455.826 317.635 437.952 303.971 415.905 303.971Z" fill="#D7336E"/>
<path d="M341.166 393.525C341.232 389.207 340.433 384.919 338.817 380.911C337.2 376.903 334.797 373.255 331.749 370.178C328.7 367.102 325.067 364.658 321.059 362.991C317.052 361.323 312.751 360.464 308.407 360.464C304.063 360.464 299.762 361.323 295.755 362.991C291.747 364.658 288.114 367.102 285.065 370.178C282.017 373.255 279.614 376.903 277.997 380.911C276.381 384.919 275.582 389.207 275.648 393.525C270.621 393.522 265.66 394.668 261.15 396.876C256.641 399.085 252.703 402.294 249.641 406.258C246.579 410.221 244.476 414.832 243.495 419.733C242.513 424.634 242.679 429.693 243.98 434.52C245.282 439.347 247.682 443.811 250.998 447.568C254.313 451.324 258.453 454.272 263.098 456.183C267.743 458.094 272.768 458.917 277.784 458.588C282.801 458.259 287.673 456.787 292.025 454.286C297.006 457.146 302.656 458.652 308.407 458.652C314.158 458.652 319.808 457.146 324.789 454.286C329.14 456.782 334.01 458.249 339.023 458.575C344.036 458.9 349.057 458.075 353.698 456.164C358.339 454.252 362.475 451.305 365.787 447.55C369.099 443.796 371.498 439.334 372.798 434.511C374.098 429.687 374.265 424.631 373.285 419.734C372.305 414.836 370.205 410.228 367.148 406.266C364.09 402.304 360.156 399.094 355.651 396.885C351.146 394.676 346.19 393.526 341.166 393.525Z" fill="#D7336E"/>
<path opacity="0.1" d="M341.166 393.525C341.232 389.207 340.433 384.919 338.817 380.911C337.2 376.903 334.797 373.255 331.749 370.178C328.7 367.102 325.067 364.658 321.059 362.991C317.052 361.323 312.751 360.464 308.407 360.464C304.063 360.464 299.762 361.323 295.755 362.991C291.747 364.658 288.114 367.102 285.065 370.178C282.017 373.255 279.614 376.903 277.997 380.911C276.381 384.919 275.582 389.207 275.648 393.525C270.621 393.522 265.66 394.668 261.15 396.876C256.641 399.085 252.703 402.294 249.641 406.258C246.579 410.221 244.476 414.832 243.495 419.733C242.513 424.634 242.679 429.693 243.98 434.52C245.282 439.347 247.682 443.811 250.998 447.568C254.313 451.324 258.453 454.272 263.098 456.183C267.743 458.094 272.768 458.917 277.784 458.588C282.801 458.259 287.673 456.787 292.025 454.286C297.006 457.146 302.656 458.652 308.407 458.652C314.158 458.652 319.808 457.146 324.789 454.286C329.14 456.782 334.01 458.249 339.023 458.575C344.036 458.9 349.057 458.075 353.698 456.164C358.339 454.252 362.475 451.305 365.787 447.55C369.099 443.796 371.498 439.334 372.798 434.511C374.098 429.687 374.265 424.631 373.285 419.734C372.305 414.836 370.205 410.228 367.148 406.266C364.09 402.304 360.156 399.094 355.651 396.885C351.146 394.676 346.19 393.526 341.166 393.525Z" fill="black"/>
<path d="M339.121 394.541C339.185 390.492 338.438 386.47 336.923 382.711C335.408 378.951 333.156 375.529 330.297 372.643C327.439 369.756 324.031 367.464 320.273 365.9C316.515 364.335 312.482 363.53 308.407 363.53C304.333 363.53 300.299 364.335 296.541 365.9C292.783 367.464 289.376 369.756 286.517 372.643C283.659 375.529 281.407 378.951 279.892 382.711C278.377 386.47 277.629 390.492 277.693 394.541C272.983 394.542 268.336 395.619 264.111 397.69C259.886 399.761 256.198 402.771 253.33 406.485C250.463 410.2 248.494 414.521 247.575 419.113C246.656 423.705 246.812 428.446 248.031 432.969C249.25 437.491 251.5 441.674 254.605 445.195C257.711 448.715 261.59 451.478 265.942 453.27C270.293 455.062 275.002 455.835 279.702 455.529C284.402 455.223 288.969 453.846 293.048 451.506C297.718 454.184 303.015 455.594 308.407 455.594C313.799 455.594 319.096 454.184 323.766 451.506C327.846 453.846 332.412 455.223 337.112 455.529C341.813 455.835 346.521 455.062 350.873 453.27C355.224 451.478 359.103 448.715 362.209 445.195C365.315 441.674 367.564 437.491 368.783 432.969C370.002 428.446 370.158 423.705 369.239 419.113C368.321 414.521 366.351 410.2 363.484 406.485C360.616 402.771 356.928 399.761 352.703 397.69C348.479 395.619 343.832 394.542 339.121 394.541Z" fill="#D7336E"/>
<path opacity="0.1" d="M435.35 146.234C442.51 146.234 449.429 148.805 454.832 153.476C460.235 158.146 463.758 164.599 464.752 171.648C465.339 167.627 465.084 163.53 464.004 159.612C462.924 155.694 461.042 152.04 458.476 148.878C455.909 145.717 452.714 143.116 449.089 141.239C445.465 139.362 441.489 138.249 437.412 137.97C433.335 137.691 429.243 138.252 425.394 139.617C421.545 140.982 418.021 143.123 415.043 145.905C412.064 148.687 409.696 152.05 408.086 155.784C406.476 159.518 405.658 163.542 405.685 167.604C405.689 168.967 405.784 170.328 405.971 171.678C406.959 164.628 410.476 158.171 415.875 153.496C421.274 148.821 428.19 146.242 435.35 146.234Z" fill="black"/>
<path opacity="0.1" d="M496.312 198.923C502.823 201.895 508.034 207.107 510.983 213.597C513.932 220.088 514.421 227.42 512.359 234.24C514.55 230.83 516.011 227.009 516.653 223.013C517.295 219.018 517.103 214.934 516.09 211.015C515.077 207.096 513.264 203.427 510.763 200.234C508.263 197.041 505.129 194.394 501.556 192.456C497.983 190.518 494.047 189.331 489.993 188.969C485.939 188.607 481.853 189.077 477.99 190.351C474.126 191.625 470.568 193.675 467.535 196.374C464.502 199.072 462.06 202.362 460.361 206.039C459.793 207.278 459.31 208.554 458.917 209.858C462.774 203.857 468.684 199.445 475.556 197.435C482.429 195.426 489.801 195.954 496.312 198.923Z" fill="black"/>
<path opacity="0.1" d="M409.294 221.309C415.806 224.281 421.016 229.493 423.965 235.984C426.914 242.474 427.403 249.806 425.341 256.627C426.078 255.478 426.736 254.282 427.312 253.046C430.552 245.94 430.83 237.847 428.083 230.538C425.337 223.229 419.791 217.299 412.657 214.044C405.524 210.789 397.384 210.474 390.018 213.169C382.651 215.865 376.659 221.35 373.35 228.425C372.782 229.664 372.3 230.94 371.907 232.244C375.763 226.245 381.672 221.834 388.543 219.825C395.414 217.815 402.784 218.342 409.294 221.309Z" fill="black"/>
<path opacity="0.1" d="M378.389 315.849C381.614 318.662 383.707 322.54 384.282 326.766C384.857 330.993 383.875 335.284 381.517 338.848C382.14 338.315 382.725 337.741 383.269 337.129C386.379 333.604 387.954 328.996 387.645 324.317C387.337 319.639 385.172 315.274 381.626 312.182C379.87 310.651 377.828 309.479 375.617 308.733C373.406 307.987 371.068 307.681 368.737 307.832C364.031 308.138 359.639 310.291 356.529 313.815C355.982 314.43 355.48 315.082 355.025 315.766C358.273 312.974 362.428 311.444 366.723 311.459C371.017 311.474 375.161 313.033 378.389 315.849Z" fill="black"/>
<path opacity="0.1" d="M657.872 397.262C661.097 400.072 663.191 403.947 663.767 408.171C664.343 412.395 663.363 416.684 661.007 420.247C661.627 419.714 662.21 419.139 662.752 418.528C664.291 416.783 665.47 414.754 666.221 412.556C666.971 410.358 667.279 408.035 667.127 405.72C666.974 403.404 666.364 401.141 665.332 399.059C664.299 396.978 662.864 395.119 661.109 393.588C659.354 392.058 657.312 390.886 655.101 390.14C652.891 389.394 650.554 389.088 648.224 389.24C645.894 389.392 643.617 389.998 641.523 391.024C639.429 392.051 637.559 393.477 636.02 395.222C635.473 395.833 634.97 396.483 634.516 397.165C637.764 394.375 641.919 392.848 646.212 392.866C650.505 392.884 654.647 394.445 657.872 397.262Z" fill="black"/>
<path opacity="0.1" d="M309.381 397.008C312.818 394.444 317.074 393.205 321.359 393.52C325.645 393.835 329.671 395.682 332.692 398.72C332.298 398.004 331.853 397.317 331.361 396.664C328.5 393.008 324.31 390.613 319.692 389.996C315.073 389.379 310.396 390.588 306.665 393.364C302.934 396.14 300.449 400.26 299.743 404.839C299.038 409.418 300.168 414.089 302.892 417.847C303.383 418.498 303.918 419.115 304.493 419.694C302.419 415.962 301.771 411.611 302.67 407.442C303.568 403.274 305.951 399.568 309.381 397.008Z" fill="black"/>
<path opacity="0.1" d="M516.179 330.858C519.617 328.296 523.872 327.057 528.157 327.372C532.442 327.687 536.468 329.533 539.49 332.569C539.095 331.854 538.65 331.167 538.159 330.514C536.778 328.608 535.029 326.995 533.013 325.769C530.998 324.542 528.757 323.727 526.421 323.372C524.086 323.016 521.702 323.127 519.41 323.697C517.118 324.267 514.963 325.286 513.071 326.694C511.18 328.101 509.589 329.869 508.393 331.895C507.196 333.92 506.418 336.162 506.103 338.49C505.788 340.818 505.943 343.185 506.559 345.452C507.175 347.72 508.239 349.843 509.689 351.697C510.181 352.352 510.719 352.971 511.299 353.551C509.223 349.819 508.574 345.467 509.471 341.297C510.367 337.127 512.75 333.42 516.179 330.858Z" fill="black"/>
<path d="M483.927 463.144C481.957 461.649 482.205 458.038 482.205 458.038C482.205 458.038 485.642 456.902 487.612 458.42C489.582 459.937 490.349 462.232 489.334 463.532C488.319 464.833 485.897 464.668 483.927 463.144Z" fill="#D7336E"/>
<path d="M490.695 502.759C488.725 501.264 488.973 497.654 488.973 497.654C488.973 497.654 492.409 496.518 494.38 498.035C496.35 499.553 497.117 501.847 496.102 503.148C495.086 504.449 492.665 504.284 490.695 502.759Z" fill="#D7336E"/>
<path d="M483.927 506.497C481.957 505.002 482.205 501.391 482.205 501.391C482.205 501.391 485.642 500.255 487.612 501.773C489.582 503.29 490.349 505.585 489.334 506.885C488.319 508.186 485.897 508.021 483.927 506.497Z" fill="#D7336E"/>
<path d="M530.549 477.345C528.579 475.851 528.827 472.24 528.827 472.24C528.827 472.24 532.263 471.104 534.234 472.621C536.204 474.139 536.971 476.434 535.956 477.734C534.94 479.035 532.519 478.87 530.549 477.345Z" fill="#D7336E"/>
<path d="M336.782 361.758C338.324 359.814 341.941 360.098 341.941 360.098C341.941 360.098 343.039 363.529 341.49 365.472C339.941 367.416 337.632 368.156 336.331 367.132C335.03 366.108 335.233 363.701 336.782 361.758Z" fill="#D7336E"/>
<path opacity="0.1" d="M359.439 217.863C369.822 217.863 378.238 209.497 378.238 199.177C378.238 188.857 369.822 180.49 359.439 180.49C349.057 180.49 340.64 188.857 340.64 199.177C340.64 209.497 349.057 217.863 359.439 217.863Z" fill="#D7336E"/>
<path opacity="0.3" d="M115.427 517.29C115.688 516.603 116.114 515.99 116.668 515.506C117.223 515.021 117.889 514.679 118.608 514.509C119.375 514.338 120.161 514.265 120.946 514.293C125.706 514.375 129.316 516.535 133.662 517.529C137.813 518.508 142.543 518.456 147.092 518.381C149.947 518.426 152.8 518.201 155.612 517.709C160.161 516.752 163.131 514.494 165.899 512.357" fill="#D7336E"/>
<path opacity="0.3" d="M646.314 509.815C646.575 509.129 647.001 508.516 647.556 508.031C648.11 507.546 648.776 507.204 649.495 507.035C650.262 506.863 651.048 506.79 651.833 506.818C656.593 506.9 660.203 509.06 664.549 510.055C668.7 511.034 673.43 510.981 677.979 510.907C680.834 510.951 683.687 510.726 686.499 510.234C691.011 509.277 694.019 507.02 696.786 504.882" fill="#D7336E"/>
<path opacity="0.3" d="M688.424 526.259C688.685 525.573 689.111 524.96 689.666 524.475C690.22 523.99 690.886 523.648 691.605 523.479C692.372 523.307 693.158 523.234 693.943 523.262C698.703 523.344 702.313 525.505 706.659 526.499C710.81 527.478 715.54 527.425 720.089 527.351C722.944 527.395 725.797 527.17 728.609 526.678C733.121 525.721 736.128 523.464 738.896 521.326" fill="#D7336E"/>
<path opacity="0.3" d="M653.082 522.56C653.205 522.356 653.373 522.182 653.574 522.053C653.774 521.923 654.002 521.841 654.24 521.812C654.522 521.761 654.81 521.741 655.097 521.752C656.834 521.752 658.15 522.373 659.736 522.664C661.359 522.899 663.001 522.982 664.639 522.911C665.678 522.923 666.716 522.858 667.745 522.717C669.089 522.485 670.37 521.975 671.505 521.222" fill="#D7336E"/>
<path opacity="0.3" d="M660.602 514.337C660.725 514.133 660.893 513.96 661.094 513.831C661.294 513.701 661.522 513.619 661.76 513.59C662.042 513.539 662.33 513.519 662.617 513.53C664.354 513.53 665.67 514.151 667.256 514.442C668.879 514.677 670.521 514.759 672.159 514.689C673.198 514.701 674.236 514.636 675.265 514.494C676.609 514.262 677.89 513.753 679.025 513" fill="#D7336E"/>
<path opacity="0.3" d="M191.375 500.973C191.508 500.766 191.686 500.592 191.895 500.463C192.105 500.334 192.341 500.252 192.586 500.225C192.879 500.181 193.176 500.163 193.473 500.173C195.278 500.173 196.654 500.741 198.301 501.01C199.994 501.222 201.701 501.297 203.406 501.234C204.487 501.244 205.567 501.184 206.64 501.055C208.021 500.847 209.349 500.374 210.55 499.665" fill="#D7336E"/>
<path opacity="0.3" d="M169.568 501.72C169.701 501.514 169.879 501.34 170.089 501.21C170.298 501.081 170.534 501 170.779 500.973C171.073 500.928 171.37 500.911 171.666 500.92C173.471 500.92 174.847 501.488 176.494 501.758C178.187 501.97 179.895 502.045 181.6 501.982C182.68 501.991 183.76 501.931 184.833 501.802C186.215 501.594 187.542 501.122 188.743 500.412" fill="#D7336E"/>
<path opacity="0.3" d="M159.792 532.239C160.053 531.552 160.48 530.94 161.034 530.455C161.589 529.97 162.255 529.628 162.973 529.459C163.74 529.287 164.526 529.214 165.312 529.242C170.072 529.324 173.681 531.484 178.028 532.478C182.178 533.458 186.908 533.405 191.458 533.33C194.313 533.375 197.165 533.15 199.977 532.658C204.527 531.701 207.497 529.444 210.264 527.306" fill="#D7336E"/>
<path d="M594.827 490.396C594.728 490.667 594.71 490.96 594.774 491.241C594.947 491.801 595.639 491.988 596.233 492.063C597.598 492.189 598.97 492.221 600.339 492.16L612.731 491.921C612.923 491.936 613.115 491.9 613.288 491.816C613.445 491.702 613.572 491.55 613.656 491.375C614.499 489.832 615.045 488.147 615.265 486.405C615.319 486.156 615.301 485.896 615.213 485.657C615.016 485.352 614.709 485.132 614.355 485.044C612.601 484.384 610.811 483.82 608.994 483.355C607.805 483.093 606.635 482.756 605.49 482.346C603.986 481.763 602.482 480.44 600.978 480.163C599.632 479.932 599.414 480.963 598.985 482.01C597.79 484.91 595.677 487.361 594.827 490.396Z" fill="#FABDBD"/>
<path d="M641.284 507.274C640.975 505.846 639.704 504.845 638.494 504C637.283 503.155 635.982 502.303 634.696 501.518C636.792 500.381 638.723 498.966 640.434 497.31C641.472 496.434 642.369 495.405 643.096 494.261C643.821 493.102 644.056 491.704 643.75 490.374C643.484 489.609 643.048 488.914 642.473 488.341C641.899 487.767 641.202 487.33 640.434 487.062C638.895 486.532 637.28 486.25 635.651 486.225C634.486 486.151 633.313 486.083 632.147 486.031C632.878 485.893 633.601 485.716 634.313 485.5C636.941 484.642 639.464 483.491 641.832 482.069C642.235 481.901 642.601 481.655 642.908 481.346C643.215 481.037 643.458 480.67 643.622 480.268C643.694 479.871 643.649 479.462 643.493 479.089C643.337 478.717 643.076 478.397 642.742 478.168C642.08 477.705 641.296 477.446 640.486 477.42C639.383 477.365 638.279 477.535 637.245 477.921C636.21 478.307 635.266 478.9 634.471 479.663C633.964 480.227 633.391 480.729 632.764 481.157C632.395 481.414 631.94 481.517 631.496 481.445C631.052 481.372 630.654 481.129 630.388 480.769C630.217 480.438 630.127 480.072 630.124 479.7L630.169 479.663C631.103 478.814 631.814 477.751 632.24 476.567C632.666 475.383 632.794 474.113 632.613 472.868C632.281 470.977 631.655 469.148 630.756 467.449C632.037 466.987 633.375 466.698 634.734 466.589C635.102 466.584 635.468 466.521 635.817 466.403C636.154 466.222 636.447 465.968 636.674 465.66C636.9 465.353 637.054 464.998 637.125 464.624C637.266 463.89 637.477 463.172 637.757 462.478C639.38 463.502 641.325 463.899 643.223 463.595C645.121 463.291 646.841 462.306 648.059 460.826C649.519 460.892 650.97 460.57 652.262 459.892C653.804 458.995 655.195 456.82 654.277 455.049C653.901 454.513 653.453 454.03 652.946 453.613C652.322 452.863 651.843 452.004 651.533 451.08C649.886 446.961 646.382 445.354 642.118 444.711C640.207 444.37 638.255 444.32 636.328 444.562C634.852 444.833 633.406 445.249 632.012 445.802L631.335 446.057C631.282 444.943 631.102 443.814 631.057 442.94C631.007 442.572 631.046 442.198 631.17 441.848C631.508 441.297 632.046 440.895 632.673 440.727L641.163 437.124C642.063 436.711 642.996 436.373 643.953 436.115C646.728 435.458 649.826 436.115 652.352 434.815C653.082 434.433 653.722 433.903 654.231 433.259C654.74 432.615 655.107 431.872 655.308 431.077C655.593 429.934 655.405 428.521 654.383 427.916C653.36 427.31 651.946 427.826 650.841 428.379C647.254 430.295 643.535 431.956 639.712 433.35C636.057 434.576 632.192 435.308 628.786 437.087C628.168 437.372 627.599 437.753 627.101 438.216C626.583 438.796 626.157 439.451 625.838 440.159L624.507 442.671C623.462 444.704 622.424 447.096 623.274 449.174C623.146 449.314 623.033 449.467 622.936 449.629C622.552 450.242 622.733 451.042 622.409 451.58C622.086 452.118 620.853 452.649 620.266 453.075C619.454 453.621 618.664 454.204 617.89 454.802C614.898 457.181 612.157 459.855 609.708 462.785C606.072 467.235 602.7 471.892 599.61 476.732C599.001 477.547 598.526 478.453 598.203 479.416C597.965 480.304 597.991 481.241 598.279 482.114C597.053 484.775 595.143 487.107 594.338 489.948L593.85 490.03C592.947 492.616 593.526 495.598 594 498.304C594.263 499.844 594.632 501.526 595.902 502.468C596.59 502.908 597.356 503.215 598.158 503.372C599.068 503.611 599.903 503.85 600.723 504.12H600.617C599.572 504.022 598.361 504.12 597.737 504.927C597.449 505.379 597.269 505.89 597.211 506.422L595.248 517.417C595.016 518.222 595.056 519.081 595.361 519.861C595.786 520.509 596.416 520.998 597.151 521.251C598.477 521.829 599.88 522.214 601.317 522.395C601.911 522.508 602.524 522.47 603.099 522.283C603.38 522.181 603.622 521.993 603.788 521.746C603.954 521.499 604.037 521.205 604.024 520.908C603.903 520.07 602.858 519.674 602.52 518.912C602.031 517.918 602.828 516.811 603.572 515.997C603.685 515.87 603.813 515.743 603.948 515.608C604.244 516.462 604.646 517.275 605.144 518.03C605.318 518.352 605.583 518.617 605.906 518.792C606.229 518.968 606.597 519.046 606.964 519.017C608.708 518.628 610.463 518.259 612.228 517.91L612.566 518.052C615.46 519.262 618.448 520.24 621.499 520.975C622.071 521.147 622.673 521.198 623.266 521.124C623.557 521.075 623.827 520.942 624.043 520.741C624.258 520.54 624.409 520.281 624.477 519.996C624.56 519.293 623.951 518.71 623.364 518.291C622.254 517.522 621.038 516.916 619.755 516.49L625.485 515.451C627.389 515.044 629.328 514.821 631.275 514.786C633.786 514.831 636.539 515.421 638.584 513.956C639.727 512.977 640.541 511.672 640.915 510.219C641.308 509.29 641.436 508.271 641.284 507.274ZM621.499 485.762C620.612 485.762 619.612 485.762 618.597 485.762C618.702 485.014 618.755 484.267 618.86 483.519C618.869 483.289 618.951 483.067 619.093 482.884C619.284 482.716 619.524 482.614 619.777 482.593L623.349 481.897C623.429 481.61 623.448 481.309 623.407 481.013C623.365 480.718 623.264 480.434 623.109 480.178C623.383 480.377 623.678 480.544 623.988 480.679C623.941 482.14 624.197 483.596 624.74 484.955C624.857 485.27 625.054 485.551 625.312 485.769H625.357C624.071 485.777 622.785 485.762 621.499 485.762Z" fill="url(#paint0_linear_65_139)"/>
<path d="M635.215 486.584C636.807 486.603 638.386 486.875 639.892 487.392C640.643 487.657 641.323 488.088 641.882 488.652C642.441 489.217 642.863 489.9 643.118 490.65C643.415 491.966 643.183 493.345 642.471 494.492C641.754 495.611 640.875 496.619 639.862 497.482C637.973 499.362 635.776 500.909 633.365 502.057C632.177 502.572 630.921 502.924 629.763 503.492C627.289 504.703 625.387 506.803 623.559 508.859C621.741 510.709 620.194 512.805 618.965 515.085C618.875 515.257 618.777 515.459 618.589 515.519C618.411 515.546 618.23 515.508 618.077 515.414L612.814 512.94C612.659 512.903 612.517 512.825 612.403 512.715C612.288 512.606 612.205 512.467 612.162 512.315C612.119 512.163 612.118 512.002 612.159 511.849C612.199 511.696 612.28 511.556 612.393 511.445C614.964 506.646 618.498 502.423 622.777 499.037C620.947 500.022 618.906 500.558 616.825 500.601C614.744 500.644 612.683 500.192 610.813 499.284C610.07 498.957 609.427 498.442 608.949 497.789C608.016 496.361 608.588 494.463 609.295 492.908C609.931 491.532 610.657 490.198 611.468 488.916C613.4 485.852 618.115 486.128 621.364 486.121C625.966 486.146 630.583 486.3 635.215 486.584Z" fill="#434175"/>
<path opacity="0.1" d="M627.944 497.34C627.07 497.436 626.226 497.716 625.47 498.162C626.771 497.288 629.748 497.512 631.275 497.362C633.223 497.292 635.15 496.929 636.99 496.286C633.952 496.416 630.929 496.769 627.944 497.34Z" fill="black"/>
<path d="M603.753 516.064C603.001 516.871 602.249 517.963 602.715 518.942C603.076 519.689 604.099 520.078 604.219 520.908C604.233 521.2 604.152 521.49 603.989 521.733C603.825 521.977 603.587 522.162 603.309 522.261C602.751 522.45 602.152 522.491 601.572 522.38C600.168 522.207 598.798 521.829 597.504 521.259C596.784 521.016 596.169 520.536 595.76 519.899C595.465 519.128 595.428 518.284 595.654 517.492L597.594 506.556C597.647 506.024 597.825 505.512 598.113 505.061C598.73 504.254 599.91 504.164 600.926 504.262C602.066 504.368 603.188 504.619 604.264 505.009C605.014 505.213 605.676 505.654 606.152 506.265C606.536 507.043 606.664 507.921 606.52 508.776C606.43 510.114 606.656 512.058 606.159 513.306C605.753 514.322 604.475 515.257 603.753 516.064Z" fill="#F86D70"/>
<path d="M617.055 515.922C619.22 516.214 621.284 517.019 623.071 518.269C623.642 518.68 624.236 519.256 624.153 519.951C624.091 520.234 623.944 520.491 623.732 520.69C623.52 520.888 623.253 521.019 622.965 521.065C622.387 521.138 621.8 521.087 621.243 520.915C618.255 520.213 615.33 519.268 612.498 518.09C611.744 517.845 611.064 517.415 610.52 516.842C610.256 516.55 610.098 516.178 610.072 515.786C610.046 515.394 610.154 515.005 610.377 514.681C610.926 514.046 611.956 514.068 612.633 513.53C613.099 513.142 613.385 512.461 613.972 512.349C614.404 512.327 614.828 512.475 615.152 512.76C615.656 513.104 616.95 513.65 617.213 514.255C617.228 514.815 617.175 515.375 617.055 515.922Z" fill="#F86D70"/>
<path d="M594.368 490.426C597.985 489.806 601.617 489.185 605.279 488.931C607.986 488.737 610.919 488.812 613.084 490.426C613.731 490.904 614.28 491.502 614.889 492.026C616.935 493.79 619.574 494.672 622.101 495.643C627.709 497.822 633.029 500.671 637.944 504.127C639.125 504.949 640.366 505.936 640.667 507.341C640.797 508.328 640.659 509.332 640.268 510.249C639.914 511.693 639.127 512.996 638.012 513.986C636.042 515.429 633.312 514.853 630.861 514.823C628.959 514.862 627.065 515.085 625.206 515.489C619.145 516.602 613.092 517.731 607.084 519.084C606.724 519.116 606.363 519.041 606.047 518.868C605.731 518.694 605.474 518.431 605.309 518.112C604.116 516.229 603.475 514.052 603.459 511.826C603.446 509.61 603.737 507.402 604.324 505.263C602.264 504.718 600.609 504.179 598.549 503.634C597.772 503.477 597.032 503.176 596.368 502.744C595.135 501.825 594.774 500.158 594.518 498.641C594.03 495.92 593.481 492.99 594.368 490.426Z" fill="#434175"/>
<path opacity="0.1" d="M629.771 508.006C628.423 507.008 626.861 506.335 625.206 506.041C624.224 505.759 623.217 505.569 622.198 505.473C620.608 505.474 619.021 505.629 617.461 505.936C613.64 506.463 609.75 506.209 606.031 505.188" fill="black"/>
<path d="M656.21 420.71C656.21 420.71 639.606 493.961 640.471 496.069C641.336 498.177 646.705 508.776 636.93 542.322C636.852 543.05 636.497 543.721 635.938 544.198C635.379 544.675 634.657 544.921 633.922 544.886C631.177 544.886 621.642 542.113 621.642 542.113C621.264 541.723 620.99 541.245 620.846 540.723C620.701 540.201 620.691 539.651 620.815 539.123C621.153 537.15 624.575 504.942 636.787 494.231L651.961 420.12C651.961 420.12 653.992 418.587 656.21 420.71Z" fill="#AE6E79"/>
<path d="M652.262 415.582L656.977 416.382C657.463 416.462 657.915 416.683 658.276 417.017C658.637 417.35 658.891 417.782 659.007 418.258C659.33 419.649 659.127 421.428 655.999 421.487C650.886 421.585 651.954 420.134 651.954 420.134C651.954 420.134 649.435 420.134 649.277 418.191C649.251 417.81 649.314 417.428 649.46 417.075C649.607 416.722 649.833 416.407 650.122 416.155C650.41 415.902 650.754 415.72 651.125 415.62C651.496 415.521 651.885 415.508 652.262 415.582Z" fill="#AE6E79"/>
<path d="M632.726 456.058C631.877 456.045 631.039 455.861 630.263 455.516C629.488 455.172 628.79 454.675 628.214 454.054C627.987 453.788 627.715 453.562 627.41 453.389C627.127 453.288 626.824 453.254 626.526 453.292C626.228 453.33 625.943 453.437 625.695 453.606C623.988 454.578 623.244 456.73 623.439 458.666C623.77 460.6 624.59 462.419 625.823 463.951C626.738 465.231 627.743 466.445 628.831 467.583C629.417 466.841 630.146 466.222 630.974 465.761C631.803 465.301 632.715 465.008 633.658 464.9C635.35 464.713 636.907 463.405 638.17 462.284C639.103 461.432 639.674 461.634 639.366 460.415C638.979 459.219 638.451 458.073 637.794 456.999C637.447 456.367 637.175 455.698 636.982 455.004C636.779 454.196 636.982 453.763 636.23 454.159C635.726 454.421 635.343 455.168 634.779 455.482C634.148 455.829 633.446 456.026 632.726 456.058Z" fill="#FABDBD"/>
<path d="M630.838 443.911C630.793 443.549 630.831 443.181 630.951 442.835C631.276 442.298 631.791 441.901 632.395 441.721L640.667 438.141C641.546 437.731 642.459 437.399 643.396 437.147C646.103 436.489 649.134 437.147 651.608 435.839C652.322 435.461 652.949 434.938 653.447 434.305C653.946 433.672 654.306 432.941 654.503 432.161C654.781 431.04 654.601 429.65 653.608 429.052C652.615 428.454 651.232 428.97 650.141 429.523C646.645 431.416 643.019 433.062 639.291 434.449C635.719 435.674 631.951 436.407 628.605 438.134C628.001 438.419 627.445 438.798 626.958 439.255C626.452 439.831 626.034 440.478 625.718 441.176L624.454 443.665C623.379 445.765 622.304 448.254 623.349 450.392C623.495 450.724 623.713 451.02 623.988 451.259C624.262 451.498 624.585 451.674 624.936 451.775C625.439 451.848 625.952 451.812 626.439 451.67C627.733 451.401 629.891 451.394 630.605 450.093C631.538 448.434 630.929 445.66 630.838 443.911Z" fill="#FABDBD"/>
<path d="M632.402 481.628C633.017 481.198 633.577 480.696 634.072 480.134C634.849 479.392 635.77 478.816 636.778 478.439C637.786 478.063 638.861 477.894 639.937 477.943C640.742 477.949 641.527 478.191 642.193 478.639C642.519 478.867 642.773 479.183 642.923 479.55C643.074 479.917 643.115 480.319 643.043 480.709C642.884 481.106 642.647 481.468 642.347 481.774C642.046 482.079 641.687 482.322 641.291 482.488C638.97 483.9 636.495 485.043 633.914 485.897C631.324 486.747 628.561 486.942 625.875 486.465C625.608 486.425 625.352 486.331 625.123 486.188C624.873 485.974 624.684 485.698 624.575 485.388C623.657 483.243 623.823 480.821 624.018 478.504C623.935 479.341 628.951 478.683 629.395 479.057C630.049 479.603 629.695 480.634 630.101 481.3C630.369 481.638 630.757 481.861 631.186 481.922C631.614 481.983 632.05 481.878 632.402 481.628Z" fill="#FABDBD"/>
<path d="M641.449 464.369C645.656 464.369 649.066 460.979 649.066 456.798C649.066 452.616 645.656 449.226 641.449 449.226C637.242 449.226 633.832 452.616 633.832 456.798C633.832 460.979 637.242 464.369 641.449 464.369Z" fill="#FABDBD"/>
<path d="M624.868 448.934C626.329 448.493 627.87 448.381 629.38 448.605C629.607 448.566 629.841 448.575 630.065 448.63C630.289 448.686 630.499 448.787 630.682 448.927C630.864 449.068 631.015 449.245 631.125 449.447C631.235 449.649 631.301 449.871 631.32 450.1C631.575 450.933 631.694 451.801 631.673 452.672C631.66 453.107 631.544 453.533 631.334 453.915C631.123 454.297 630.825 454.624 630.463 454.869C629.906 455.205 629.222 455.258 628.65 455.579C628.272 455.826 627.957 456.157 627.731 456.546C627.505 456.936 627.375 457.373 627.35 457.822C627.298 458.716 627.41 459.613 627.68 460.468C628.263 462.646 629.017 464.775 629.936 466.836C630.884 468.981 632.034 471.104 632.312 473.436C632.486 474.667 632.357 475.922 631.939 477.093C631.52 478.264 630.822 479.317 629.906 480.163C628.964 480.977 627.783 481.465 626.538 481.556C625.294 481.646 624.054 481.333 623.003 480.664C623.154 480.914 623.252 481.192 623.292 481.481C623.332 481.77 623.313 482.064 623.236 482.346L619.74 483.049C619.619 483.046 619.498 483.069 619.386 483.115C619.275 483.16 619.173 483.228 619.089 483.314C619.004 483.401 618.938 483.503 618.895 483.615C618.852 483.728 618.832 483.848 618.837 483.968C618.753 485.266 618.541 486.553 618.206 487.81C618.036 488.441 617.703 489.016 617.24 489.479C616.777 489.942 616.2 490.276 615.566 490.448C614.378 490.673 613.213 490.082 612.13 489.544C609.602 488.3 606.961 487.299 604.242 486.554C602.862 486.289 601.547 485.761 600.369 484.999C599.629 484.409 599.076 483.619 598.776 482.724C598.476 481.829 598.442 480.868 598.677 479.954C598.997 479.003 599.464 478.108 600.061 477.301C603.094 472.52 606.403 467.918 609.972 463.517C612.367 460.623 615.053 457.978 617.988 455.624C618.74 455.026 619.491 454.458 620.311 453.912C620.89 453.516 622.056 453.068 622.409 452.47C622.763 451.872 622.552 451.147 622.928 450.534C623.387 449.809 624.066 449.248 624.868 448.934Z" fill="#F86D70"/>
<path d="M651.518 460.61C650.131 461.334 648.568 461.655 647.006 461.537C645.457 461.484 643.923 461.208 642.374 461.14C640.456 461.058 638.223 461.484 637.336 463.166C637.052 463.86 636.84 464.582 636.704 465.319C636.631 465.687 636.478 466.034 636.256 466.338C636.034 466.641 635.748 466.893 635.418 467.075C635.076 467.189 634.719 467.252 634.358 467.262C631.12 467.598 628.059 468.895 625.572 470.984C623.086 473.073 621.289 475.857 620.416 478.975C619.637 478.199 619.043 477.259 618.68 476.223C618.317 475.188 618.193 474.085 618.319 472.995C617.8 474.931 615.604 476.471 616.063 478.429C615.201 477.48 614.547 476.363 614.144 475.149C613.741 473.935 613.598 472.651 613.722 471.378C613.847 470.106 614.237 468.873 614.868 467.759C615.499 466.645 616.356 465.674 617.386 464.908C618.379 464.16 619.514 463.637 620.544 462.949C621.981 461.981 623.201 460.728 624.129 459.27C625.057 457.811 625.672 456.178 625.936 454.473C626.154 453.023 626.124 451.483 626.808 450.183C627.756 448.374 629.816 447.484 631.734 446.774C633.098 446.227 634.514 445.814 635.96 445.541C637.84 445.299 639.747 445.342 641.614 445.668C645.78 446.296 649.202 447.873 650.796 451.932C651.097 452.84 651.566 453.684 652.179 454.421C652.67 454.837 653.105 455.314 653.473 455.841C654.39 457.545 653.029 459.69 651.518 460.61Z" fill="#434175"/>
<path d="M204.911 545.596C204.911 545.596 267.444 516.595 290.988 526.768C314.532 536.941 369.832 534.908 369.832 534.908C369.832 534.908 468.098 530.871 479.378 534.908C490.657 538.944 593.015 538.981 598.128 534.908C603.242 530.834 661.602 527.784 670.821 534.908C676.469 539.25 682.662 542.843 689.244 545.596H204.911Z" fill="#E8EAF2"/>
<path opacity="0.3" d="M204.911 545.596C204.911 545.596 267.444 511.146 290.988 523.232C314.532 535.319 369.817 532.904 369.817 532.904C369.817 532.904 468.098 528.068 479.363 532.904C490.627 537.74 593 537.74 598.113 532.904C603.227 528.068 661.587 524.443 670.806 532.904C676.314 537.982 682.516 542.26 689.229 545.611L204.911 545.596Z" fill="#D7336E"/>
</g>
<defs>
<linearGradient id="paint0_linear_65_139" x1="599.855" y1="467.759" x2="648.821" y2="480.931" gradientUnits="userSpaceOnUse">
<stop stop-color="#808080" stop-opacity="0.25"/>
<stop offset="0.54" stop-color="#808080" stop-opacity="0.12"/>
<stop offset="1" stop-color="#808080" stop-opacity="0.1"/>
</linearGradient>
<clipPath id="clip0_65_139">
<rect width="861" height="546" fill="white"/>
</clipPath>
</defs>
</svg>
