<svg width="80" height="80" viewBox="0 0 80 80" fill="none" xmlns="http://www.w3.org/2000/svg">
<g clip-path="url(#clip0_65_884)">
<path d="M44.6701 58.2286L46.574 46.3292L33.7227 41.0935L31.8188 59.1805L44.6701 58.2286Z" fill="#A0616A"/>
<path d="M57.5862 75.8142C56.4828 76.3521 55.3584 76.8377 54.2172 77.2685C51.9348 78.1322 49.5789 78.7838 47.162 79.2189C44.7997 79.6454 42.3744 79.8619 39.949 79.8619C36.6725 79.8619 33.4149 79.4689 30.2646 78.6912C29.0309 78.3887 27.7867 78.0189 26.5636 77.5879C26.4353 77.5417 26.3051 77.4955 26.1768 77.4491C24.6594 76.8987 23.1672 76.2534 21.7318 75.5242C21.5385 75.4275 21.3451 75.3286 21.1518 75.2235C20.9374 75.1143 20.7251 74.9987 20.5108 74.8789C20.2375 74.7297 19.9664 74.5741 19.6953 74.4165C18.7874 73.8911 17.8942 73.3236 17.0409 72.7331L16.9842 72.6953C16.9337 72.6596 16.8833 72.626 16.835 72.5902C16.8665 72.4242 16.8959 72.2727 16.9232 72.1383C17.0283 71.6108 17.0977 71.3208 17.0977 71.3208L22.852 59.4337L24.4556 56.1215L25.2374 55.7999L31.1431 53.3726H45.5773L50.1316 55.2556C50.1316 55.2556 50.1547 55.3418 50.201 55.5079C50.6549 57.1367 53.303 66.384 57.4118 75.4316C57.4685 75.5576 57.5274 75.6859 57.5862 75.8142L57.5862 75.8142Z" fill="#6C63FF"/>
<path d="M41.4224 50.1546C48.6602 50.1546 54.5276 44.2871 54.5276 37.0493C54.5276 29.8115 48.6602 23.9441 41.4224 23.9441C34.1846 23.9441 28.3171 29.8115 28.3171 37.0493C28.3171 44.2871 34.1846 50.1546 41.4224 50.1546Z" fill="#A0616A"/>
<path d="M25.2602 55.6873L25.2377 55.8L21.2422 74.797L21.2076 74.9624L21.1519 75.2241C20.9369 75.1143 20.7249 74.9985 20.5114 74.8797C20.2377 74.7294 19.967 74.5745 19.6948 74.4166C18.788 73.8918 17.8948 73.3233 17.0407 72.7339L16.9835 72.6948C16.9339 72.6602 16.8828 72.6256 16.8347 72.591C16.182 72.1354 15.5459 71.6602 14.9249 71.17C14.9204 71.167 14.9174 71.1639 14.9129 71.1594C13.8046 70.2662 12.7369 69.3053 11.7159 68.2842C11.0572 67.6256 10.4241 66.9474 9.81812 66.2512L9.90985 65.8662L9.91887 65.8271L10.0332 65.3369C11.0497 61.0436 14.4888 57.7489 18.8211 56.9188L24.5775 55.8166L25.2602 55.6873H25.2602Z" fill="#6C63FF"/>
<path d="M66.0746 70.2594C64.3785 71.7032 62.5606 73.0106 60.6418 74.1581C60.4547 74.2716 60.2635 74.3829 60.0722 74.4943C59.2568 74.9651 58.4266 75.4043 57.5859 75.8142C56.4826 76.3521 55.3582 76.8377 54.217 77.2685L54.1287 76.8523L49.6165 55.3965L50.2007 55.5079L56.056 56.6302C60.3875 57.4604 63.8279 60.7557 64.843 65.0494L65.9632 69.7929L66.0746 70.2594H66.0746Z" fill="#6C63FF"/>
<path d="M56.5142 40.5525C56.1737 41.8219 54.4608 47.4943 50.0747 48.688C49.213 48.9234 47.1576 49.1946 47.7019 48.688C47.8259 48.5725 47.9457 48.459 48.0655 48.3475C52.8257 43.871 54.7677 41.1348 53.8808 35.0609C53.3175 31.1937 46.9033 27.6819 43.2947 27.333C41.7731 27.186 39.8312 27.7008 38.5492 29.027C36.4328 31.2126 36.7816 37.9213 35.6089 41.8619C35.2937 42.9169 34.8713 43.7744 34.2639 44.2934C33.8855 44.6171 33.6439 44.2052 33.4652 43.5305C33.0848 42.0971 32.9861 39.4723 32.4459 40.2141C30.8844 42.3642 32.3724 45.2139 32.8221 46.3132C32.9146 46.5381 33.0092 46.7544 33.1037 46.9605V46.9626C33.1584 47.0802 33.2151 47.198 33.2698 47.3094V47.3115C34.7703 50.3714 36.5736 51.4664 38.1624 53.3726C38.7866 54.1187 39.3772 54.9866 39.9047 56.1469C40.2662 56.9413 40.5268 57.7399 40.7055 58.5237C41.6155 62.4539 40.5352 66.0247 40.2431 66.9957C39.6315 69.0175 38.5807 72.4914 35.4976 74.4522C31.6263 76.9155 28.0934 74.7445 26.4037 77.0836C26.3826 77.1109 26.3637 77.1382 26.3448 77.1655C26.2817 77.2601 26.225 77.3548 26.1767 77.4492C24.6593 76.8987 23.1671 76.2534 21.7317 75.5242C21.5383 75.4276 21.3449 75.3286 21.1516 75.2235C20.9372 75.1144 20.725 74.9988 20.5106 74.8789C20.5022 74.715 20.4938 74.5512 20.4874 74.3851C20.3635 71.5415 20.5505 68.4163 21.2588 65.2995C21.7127 63.3093 22.1625 61.3357 22.8518 59.4338C23.3016 58.1939 23.8522 56.9832 24.5773 55.8168C25.1574 54.8795 25.8467 53.9695 26.6831 53.0951C28.52 51.1763 30.153 50.3757 30.4115 48.3496C30.7814 45.4577 27.7697 44.5877 26.6831 40.214C25.9413 37.2235 25.1657 32.913 25.9182 30.0085C26.6285 27.2638 27.2464 24.8826 29.3082 22.5496C29.8041 21.9905 33.8751 18.1025 38.5912 17.4635C40.7643 17.1715 42.7021 19.9541 45.3291 20.553C48.3492 21.2404 50.0789 21.6334 51.7686 22.9258C54.6248 25.1073 55.4297 28.3692 56.1758 31.3998C56.7601 33.7705 57.5167 36.8368 56.5142 40.5525L56.5142 40.5525H56.5142Z" fill="#2F2E41"/>
<path d="M68.2842 11.7158C60.7293 4.1609 50.6842 0 40 0C29.3158 0 19.2707 4.1609 11.7158 11.7158C4.1609 19.2707 0 29.3158 0 40C0 49.7519 3.46616 58.9714 9.81804 66.2511C10.4241 66.9474 11.0571 67.6256 11.7158 68.2842C12.7368 69.3053 13.8045 70.2662 14.9128 71.1594C14.9173 71.1639 14.9203 71.1669 14.9248 71.1699C22.009 76.8917 30.7654 80 40 80C50.6842 80 60.7293 75.8391 68.2842 68.2842C75.8391 60.7293 80 50.6842 80 40C80 29.3158 75.8391 19.2707 68.2842 11.7158V11.7158ZM66.006 69.9699C63.4391 72.203 60.582 74.1098 57.5008 75.6286C56.4195 76.1624 55.3113 76.6481 54.1774 77.0827C49.7729 78.7729 44.9925 79.6992 40 79.6992C35.182 79.6992 30.5624 78.8361 26.2872 77.2571C24.5323 76.6105 22.8361 75.8421 21.2075 74.9624C20.9684 74.8331 20.7308 74.7022 20.4947 74.5684C19.2526 73.8647 18.0511 73.0962 16.8977 72.2662C14.3203 70.4165 11.9729 68.2662 9.90978 65.8662C3.92331 58.9128 0.300752 49.8722 0.300752 40C0.300752 18.1098 18.1098 0.300752 40 0.300752C61.8902 0.300752 79.6992 18.1098 79.6992 40C79.6992 51.9519 74.391 62.6872 66.006 69.9699Z" fill="#3F3D56"/>
</g>
<defs>
<clipPath id="clip0_65_884">
<rect width="80" height="80" fill="white"/>
</clipPath>
</defs>
</svg>